<?xml version="1.0" encoding="UTF-8"?>
<svg xmlns="http://www.w3.org/2000/svg" xmlns:xlink="http://www.w3.org/1999/xlink" width="256pt" height="256pt" viewBox="0 0 256 256" version="1.1">
<g id="surface7483340">
<rect x="0" y="0" width="256" height="256" style="fill:rgb(100%,100%,100%);fill-opacity:1;stroke:none;"/>
<path style=" stroke:none;fill-rule:nonzero;fill:rgb(54.901963%,61.960787%,100%);fill-opacity:1;" d="M 213.332031 64 C 213.332031 64 188.878906 44.863281 160 42.667969 L 157.398438 47.871094 C 183.507812 54.261719 195.488281 63.417969 208 74.667969 C 186.425781 63.652344 165.125 53.332031 128 53.332031 C 90.875 53.332031 69.574219 63.652344 48 74.667969 C 60.511719 63.417969 74.761719 53.253906 98.601562 47.871094 L 96 42.667969 C 65.703125 45.53125 42.667969 64 42.667969 64 C 42.667969 64 15.355469 103.601562 10.667969 181.332031 C 38.199219 213.082031 80 213.332031 80 213.332031 L 88.742188 201.679688 C 73.902344 196.523438 57.148438 187.3125 42.667969 170.667969 C 59.9375 183.734375 86 197.332031 128 197.332031 C 170 197.332031 196.0625 183.734375 213.332031 170.667969 C 198.851562 187.3125 182.097656 196.523438 167.257812 201.679688 L 176 213.332031 C 176 213.332031 217.800781 213.082031 245.332031 181.332031 C 240.644531 103.601562 213.332031 64 213.332031 64 Z M 93.332031 160 C 83.023438 160 74.667969 150.449219 74.667969 138.667969 C 74.667969 126.886719 83.023438 117.332031 93.332031 117.332031 C 103.644531 117.332031 112 126.886719 112 138.667969 C 112 150.449219 103.644531 160 93.332031 160 Z M 162.667969 160 C 152.355469 160 144 150.449219 144 138.667969 C 144 126.886719 152.355469 117.332031 162.667969 117.332031 C 172.976562 117.332031 181.332031 126.886719 181.332031 138.667969 C 181.332031 150.449219 172.976562 160 162.667969 160 Z M 162.667969 160 "/>
</g>
</svg>
