<svg xmlns="http://www.w3.org/2000/svg" width="40" height="40" viewBox="0 0 40 40">
  <path fill="#BC2A8D" d="M28.9612095,0 L11.0383173,0 C4.95179283,0 0,4.95202943 0,11.0385539 L0,28.9614461 C0,35.0482072 4.95179283,40 11.0383173,40 L28.9612095,40 C35.0482072,40 40,35.0479706 40,28.9614461 L40,11.0385539 C40.0002366,4.95202943 35.0482072,0 28.9612095,0 Z M36.4512427,28.9614461 C36.4512427,33.091292 33.091292,36.4510061 28.9614461,36.4510061 L11.0383173,36.4510061 C6.90870805,36.4512427 3.54899386,33.091292 3.54899386,28.9614461 L3.54899386,11.0385539 C3.54899386,6.90894465 6.90870805,3.54899386 11.0383173,3.54899386 L28.9612095,3.54899386 C33.0910554,3.54899386 36.4510061,6.90894465 36.4510061,11.0385539 L36.4510061,28.9614461 L36.4512427,28.9614461 Z M20,9.6934852 C14.3166412,9.6934852 9.693012,14.3171144 9.693012,20.0004732 C9.693012,25.6835954 14.3166412,30.306988 20,30.306988 C25.6833588,30.306988 30.306988,25.6835954 30.306988,20.0004732 C30.306988,14.3171144 25.6833588,9.6934852 20,9.6934852 Z M20,26.7577575 C16.273793,26.7577575 13.2420059,23.7264436 13.2420059,20.0002366 C13.2420059,16.273793 16.2735564,13.2422425 20,13.2422425 C23.7264436,13.2422425 26.7579941,16.273793 26.7579941,20.0002366 C26.7579941,23.7264436 23.726207,26.7577575 20,26.7577575 Z M30.7392554,6.68417504 C30.0554826,6.68417504 29.3837764,6.96099656 28.9008766,7.44602572 C28.4156108,7.92868888 28.1366599,8.6006317 28.1366599,9.2867705 C28.1366599,9.97078 28.4158474,10.6424862 28.9008766,11.1275153 C29.3835398,11.6101785 30.0554826,11.889366 30.7392554,11.889366 C31.4253942,11.889366 32.0949711,11.6101785 32.5800002,11.1275153 C33.0650294,10.6424862 33.3418509,9.9705434 33.3418509,9.2867705 C33.3418509,8.6006317 33.0650294,7.92868888 32.5800002,7.44602572 C32.0973371,6.96099656 31.4253942,6.68417504 30.7392554,6.68417504 Z M36.4512427,28.9614461 C36.4512427,33.091292 33.091292,36.4510061 28.9614461,36.4510061 L11.0383173,36.4510061 C6.90870805,36.4512427 3.54899386,33.091292 3.54899386,28.9614461 L3.54899386,11.0385539 C3.54899386,6.90894465 6.90870805,3.54899386 11.0383173,3.54899386 L28.9612095,3.54899386 C33.0910554,3.54899386 36.4510061,6.90894465 36.4510061,11.0385539 L36.4510061,28.9614461 L36.4512427,28.9614461 Z M28.9612095,0 L11.0383173,0 C4.95179283,0 0,4.95202943 0,11.0385539 L0,28.9614461 C0,35.0482072 4.95179283,40 11.0383173,40 L28.9612095,40 C35.0482072,40 40,35.0479706 40,28.9614461 L40,11.0385539 C40.0002366,4.95202943 35.0482072,0 28.9612095,0 Z"/>
</svg>
